<svg id="visual" preserveAspectRatio="none" viewBox="0 0 960 540" width="960" height="540" xmlns="http://www.w3.org/2000/svg" xmlns:xlink="http://www.w3.org/1999/xlink" version="1.1"><rect x="0" y="0" width="960" height="540" fill="#ffffff"></rect><path d="M0 359L17.8 347.5C35.7 336 71.3 313 106.8 304.2C142.3 295.3 177.7 300.7 213.2 314.2C248.7 327.7 284.3 349.3 320 349.7C355.7 350 391.3 329 426.8 327.7C462.3 326.3 497.7 344.7 533.2 360C568.7 375.3 604.3 387.7 640 392.7C675.7 397.7 711.3 395.3 746.8 387.8C782.3 380.3 817.7 367.7 853.2 366C888.7 364.3 924.3 373.7 942.2 378.3L960 383L960 0L942.2 0C924.3 0 888.7 0 853.2 0C817.7 0 782.3 0 746.8 0C711.3 0 675.7 0 640 0C604.3 0 568.7 0 533.2 0C497.7 0 462.3 0 426.8 0C391.3 0 355.7 0 320 0C284.3 0 248.7 0 213.2 0C177.7 0 142.3 0 106.8 0C71.3 0 35.7 0 17.8 0L0 0Z" fill="#24c7c2"></path><path d="M0 310L17.8 291.5C35.7 273 71.3 236 106.8 227.2C142.3 218.3 177.7 237.7 213.2 251.7C248.7 265.7 284.3 274.3 320 284.2C355.7 294 391.3 305 426.8 306.7C462.3 308.3 497.7 300.7 533.2 283.7C568.7 266.7 604.3 240.3 640 248.5C675.7 256.7 711.3 299.3 746.8 307.7C782.3 316 817.7 290 853.2 267C888.7 244 924.3 224 942.2 214L960 204L960 0L942.2 0C924.3 0 888.7 0 853.2 0C817.7 0 782.3 0 746.8 0C711.3 0 675.7 0 640 0C604.3 0 568.7 0 533.2 0C497.7 0 462.3 0 426.8 0C391.3 0 355.7 0 320 0C284.3 0 248.7 0 213.2 0C177.7 0 142.3 0 106.8 0C71.3 0 35.7 0 17.8 0L0 0Z" fill="#159e9b"></path><path d="M0 168L17.8 175C35.7 182 71.3 196 106.8 198.2C142.3 200.3 177.7 190.7 213.2 181.3C248.7 172 284.3 163 320 158C355.7 153 391.3 152 426.8 171.5C462.3 191 497.7 231 533.2 233.7C568.7 236.3 604.3 201.7 640 183.5C675.7 165.3 711.3 163.7 746.8 162.8C782.3 162 817.7 162 853.2 171.8C888.7 181.7 924.3 201.3 942.2 211.2L960 221L960 0L942.2 0C924.3 0 888.7 0 853.2 0C817.7 0 782.3 0 746.8 0C711.3 0 675.7 0 640 0C604.3 0 568.7 0 533.2 0C497.7 0 462.3 0 426.8 0C391.3 0 355.7 0 320 0C284.3 0 248.7 0 213.2 0C177.7 0 142.3 0 106.8 0C71.3 0 35.7 0 17.8 0L0 0Z" fill="#057875"></path><path d="M0 174L17.8 173.8C35.7 173.7 71.3 173.3 106.8 167.2C142.3 161 177.7 149 213.2 157.7C248.7 166.3 284.3 195.7 320 206.3C355.7 217 391.3 209 426.8 204.3C462.3 199.7 497.7 198.3 533.2 187C568.7 175.7 604.3 154.3 640 152.3C675.7 150.3 711.3 167.7 746.8 183C782.3 198.3 817.7 211.7 853.2 202.2C888.7 192.7 924.3 160.3 942.2 144.2L960 128L960 0L942.2 0C924.3 0 888.7 0 853.2 0C817.7 0 782.3 0 746.8 0C711.3 0 675.7 0 640 0C604.3 0 568.7 0 533.2 0C497.7 0 462.3 0 426.8 0C391.3 0 355.7 0 320 0C284.3 0 248.7 0 213.2 0C177.7 0 142.3 0 106.8 0C71.3 0 35.7 0 17.8 0L0 0Z" fill="#005251"></path><path d="M0 156L17.8 157.3C35.7 158.7 71.3 161.3 106.8 157.8C142.3 154.3 177.7 144.7 213.2 133.7C248.7 122.7 284.3 110.3 320 105.8C355.7 101.3 391.3 104.7 426.8 99.5C462.3 94.3 497.7 80.7 533.2 79.7C568.7 78.7 604.3 90.3 640 100.5C675.7 110.7 711.3 119.3 746.8 114.2C782.3 109 817.7 90 853.2 90.3C888.7 90.7 924.3 110.3 942.2 120.2L960 130L960 0L942.2 0C924.3 0 888.7 0 853.2 0C817.7 0 782.3 0 746.8 0C711.3 0 675.7 0 640 0C604.3 0 568.7 0 533.2 0C497.7 0 462.3 0 426.8 0C391.3 0 355.7 0 320 0C284.3 0 248.7 0 213.2 0C177.7 0 142.3 0 106.8 0C71.3 0 35.7 0 17.8 0L0 0Z" fill="#002f2e"></path><path d="M0 12L17.8 25.3C35.7 38.7 71.3 65.3 106.8 71C142.3 76.7 177.7 61.3 213.2 53.2C248.7 45 284.3 44 320 48.3C355.7 52.7 391.3 62.3 426.8 62.8C462.3 63.3 497.7 54.7 533.2 53.5C568.7 52.3 604.3 58.7 640 55.5C675.7 52.3 711.3 39.7 746.8 33C782.3 26.3 817.7 25.7 853.2 38.7C888.7 51.7 924.3 78.3 942.2 91.7L960 105L960 0L942.2 0C924.3 0 888.7 0 853.2 0C817.7 0 782.3 0 746.8 0C711.3 0 675.7 0 640 0C604.3 0 568.7 0 533.2 0C497.7 0 462.3 0 426.8 0C391.3 0 355.7 0 320 0C284.3 0 248.7 0 213.2 0C177.7 0 142.3 0 106.8 0C71.3 0 35.7 0 17.8 0L0 0Z" fill="#000000"></path></svg>
