<svg id="visual" preserveAspectRatio="none" viewBox="0 0 960 540" width="960" height="540" xmlns="http://www.w3.org/2000/svg" xmlns:xlink="http://www.w3.org/1999/xlink" version="1.1"><rect x="0" y="0" width="960" height="540" fill="#e2e8f0"></rect><path d="M0 213L17.8 200.8C35.7 188.7 71.3 164.3 106.8 158.8C142.3 153.3 177.7 166.7 213.2 172.5C248.7 178.3 284.3 176.7 320 170.3C355.7 164 391.3 153 426.8 162C462.3 171 497.7 200 533.2 212.2C568.7 224.3 604.3 219.7 640 208.3C675.7 197 711.3 179 746.8 184.3C782.3 189.7 817.7 218.3 853.2 229.3C888.7 240.3 924.3 233.7 942.2 230.3L960 227L960 0L942.2 0C924.3 0 888.7 0 853.2 0C817.7 0 782.3 0 746.8 0C711.3 0 675.7 0 640 0C604.3 0 568.7 0 533.2 0C497.7 0 462.3 0 426.8 0C391.3 0 355.7 0 320 0C284.3 0 248.7 0 213.2 0C177.7 0 142.3 0 106.8 0C71.3 0 35.7 0 17.8 0L0 0Z" fill="#c62368"></path><path d="M0 174L17.8 169C35.7 164 71.3 154 106.8 153.7C142.3 153.3 177.7 162.7 213.2 169.8C248.7 177 284.3 182 320 174.5C355.7 167 391.3 147 426.8 141.7C462.3 136.3 497.7 145.7 533.2 144.5C568.7 143.3 604.3 131.7 640 129C675.7 126.3 711.3 132.7 746.8 135C782.3 137.3 817.7 135.7 853.2 134.7C888.7 133.7 924.3 133.3 942.2 133.2L960 133L960 0L942.2 0C924.3 0 888.7 0 853.2 0C817.7 0 782.3 0 746.8 0C711.3 0 675.7 0 640 0C604.3 0 568.7 0 533.2 0C497.7 0 462.3 0 426.8 0C391.3 0 355.7 0 320 0C284.3 0 248.7 0 213.2 0C177.7 0 142.3 0 106.8 0C71.3 0 35.7 0 17.8 0L0 0Z" fill="#a4124d"></path><path d="M0 138L17.8 140.8C35.7 143.7 71.3 149.3 106.8 154.2C142.3 159 177.7 163 213.2 160.5C248.7 158 284.3 149 320 144.3C355.7 139.7 391.3 139.3 426.8 133C462.3 126.7 497.7 114.3 533.2 111.7C568.7 109 604.3 116 640 112.7C675.7 109.3 711.3 95.7 746.8 98.7C782.3 101.7 817.7 121.3 853.2 120.7C888.7 120 924.3 99 942.2 88.5L960 78L960 0L942.2 0C924.3 0 888.7 0 853.2 0C817.7 0 782.3 0 746.8 0C711.3 0 675.7 0 640 0C604.3 0 568.7 0 533.2 0C497.7 0 462.3 0 426.8 0C391.3 0 355.7 0 320 0C284.3 0 248.7 0 213.2 0C177.7 0 142.3 0 106.8 0C71.3 0 35.7 0 17.8 0L0 0Z" fill="#830034"></path><path d="M0 106L17.8 95.5C35.7 85 71.3 64 106.8 62.5C142.3 61 177.7 79 213.2 91.5C248.7 104 284.3 111 320 108.7C355.7 106.3 391.3 94.7 426.8 89.2C462.3 83.7 497.7 84.3 533.2 84.5C568.7 84.7 604.3 84.3 640 78.5C675.7 72.7 711.3 61.3 746.8 58.2C782.3 55 817.7 60 853.2 58.5C888.7 57 924.3 49 942.2 45L960 41L960 0L942.2 0C924.3 0 888.7 0 853.2 0C817.7 0 782.3 0 746.8 0C711.3 0 675.7 0 640 0C604.3 0 568.7 0 533.2 0C497.7 0 462.3 0 426.8 0C391.3 0 355.7 0 320 0C284.3 0 248.7 0 213.2 0C177.7 0 142.3 0 106.8 0C71.3 0 35.7 0 17.8 0L0 0Z" fill="#5d0018"></path><path d="M0 58L17.8 52C35.7 46 71.3 34 106.8 37.3C142.3 40.7 177.7 59.3 213.2 65.8C248.7 72.3 284.3 66.7 320 64.7C355.7 62.7 391.3 64.3 426.8 55.8C462.3 47.3 497.7 28.7 533.2 23C568.7 17.3 604.3 24.7 640 28.5C675.7 32.3 711.3 32.7 746.8 34.8C782.3 37 817.7 41 853.2 40.8C888.7 40.7 924.3 36.3 942.2 34.2L960 32L960 0L942.2 0C924.3 0 888.7 0 853.2 0C817.7 0 782.3 0 746.8 0C711.3 0 675.7 0 640 0C604.3 0 568.7 0 533.2 0C497.7 0 462.3 0 426.8 0C391.3 0 355.7 0 320 0C284.3 0 248.7 0 213.2 0C177.7 0 142.3 0 106.8 0C71.3 0 35.7 0 17.8 0L0 0Z" fill="#000000"></path></svg>
