<?xml version="1.0" encoding="UTF-8"?>
<svg width="508px" height="508px" viewBox="0 0 508 508" version="1.1" xmlns="http://www.w3.org/2000/svg" xmlns:xlink="http://www.w3.org/1999/xlink">
    <!-- Generator: Sketch 63.1 (92452) - https://sketch.com -->
    <title>drash</title>
    <desc>Created with Sketch.</desc>
    <g id="Page-1" stroke="none" stroke-width="1" fill="none" fill-rule="evenodd">
        <g id="polygons" transform="translate(113.000000, 34.000000)">
            <polygon id="Triangle" fill="#109ED3" transform="translate(44.000000, 293.000000) rotate(-90.000000) translate(-44.000000, -293.000000) " points="44 259 112 327 -24 327"></polygon>
            <polygon id="Triangle" fill="#10B0EC" transform="translate(44.000000, 225.000000) rotate(-270.000000) translate(-44.000000, -225.000000) " points="44 191 112 259 -24 259"></polygon>
            <polygon id="Triangle" fill="#1788B3" transform="translate(44.000000, 371.000000) rotate(-270.000000) translate(-44.000000, -371.000000) " points="44 337 112 405 -24 405"></polygon>
            <polygon id="Triangle" fill="#279D34" transform="translate(136.000000, 405.000000) rotate(-180.000000) translate(-136.000000, -405.000000) " points="136 371 204 439 68 439"></polygon>
            <polygon id="Triangle" fill="#32B240" points="68 371 136 439 0 439"></polygon>
            <polygon id="Triangle" fill="#2A8735" points="214 371 282 439 146 439"></polygon>
            <polygon id="Triangle" fill="#CB0806" transform="translate(204.000000, 214.000000) rotate(-90.000000) translate(-204.000000, -214.000000) " points="204 180 272 248 136 248"></polygon>
            <polygon id="Triangle" fill="#860404" transform="translate(204.000000, 350.000000) rotate(-90.000000) translate(-204.000000, -350.000000) " points="204 316 272 384 136 384"></polygon>
            <polygon id="Triangle" fill="#FF0000" transform="translate(204.000000, 68.000000) rotate(-90.000000) translate(-204.000000, -68.000000) " points="204 34 272 102 136 102"></polygon>
            <polygon id="Triangle" fill="#E10709" transform="translate(204.000000, 146.000000) rotate(-270.000000) translate(-204.000000, -146.000000) " points="204 112 272 180 136 180"></polygon>
            <polygon id="Triangle" fill="#A7080A" transform="translate(204.000000, 282.000000) rotate(-270.000000) translate(-204.000000, -282.000000) " points="204 248 272 316 136 316"></polygon>
            <polygon id="Triangle" fill="#D9BA06" points="146 157 214 225 78 225"></polygon>
            <polygon id="Triangle" fill="#F4D002" transform="translate(78.000000, 191.000000) rotate(-180.000000) translate(-78.000000, -191.000000) " points="78 157 146 225 10 225"></polygon>
        </g>
    </g>
</svg>