<?xml version="1.0" encoding="UTF-8"?>
<svg width="508px" height="508px" viewBox="0 0 508 508" version="1.1" xmlns="http://www.w3.org/2000/svg" xmlns:xlink="http://www.w3.org/1999/xlink">
    <title>back</title>
    <g id="middleware" stroke="none" stroke-width="1" fill="none" fill-rule="evenodd">
        <g id="polygons" transform="translate(59.000000, 53.000000)">
            <polygon id="Triangle" fill="#1788B3" transform="translate(83.500000, 249.000000) rotate(-270.000000) translate(-83.500000, -249.000000) " points="83.5 211 159.5 287 7.5 287"></polygon>
            <polygon id="Triangle" fill="#1788B3" transform="translate(83.500000, 325.000000) rotate(-90.000000) translate(-83.500000, -325.000000) " points="83.5 287 159.5 363 7.5 363"></polygon>
            <polygon id="Triangle" fill="#CB0806" transform="translate(317.500000, 238.000000) rotate(-90.000000) translate(-317.500000, -238.000000) " points="317.5 200 393.5 276 241.5 276"></polygon>
            <polygon id="Triangle" fill="#FF0000" transform="translate(317.500000, 85.000000) rotate(-90.000000) translate(-317.500000, -85.000000) " points="317.5 47 393.5 123 241.5 123"></polygon>
            <polygon id="Triangle" fill="#E10709" transform="translate(317.500000, 161.000000) rotate(-270.000000) translate(-317.500000, -161.000000) " points="317.5 123 393.5 199 241.5 199"></polygon>
            <polygon id="Triangle" fill="#A7080A" transform="translate(317.500000, 325.000000) rotate(-270.000000) translate(-317.500000, -325.000000) " points="317.5 287 393.5 363 241.5 363"></polygon>
            <polygon id="Triangle" fill="#109ED3" transform="translate(83.500000, 172.000000) rotate(-90.000000) translate(-83.500000, -172.000000) " points="83.5 134 159.5 210 7.5 210"></polygon>
            <polygon id="Triangle" fill="#10B0EC" transform="translate(83.500000, 85.000000) rotate(-270.000000) translate(-83.500000, -85.000000) " points="83.5 47 159.5 123 7.5 123"></polygon>
            <polygon id="Triangle" fill="#D9BA06" transform="translate(201.188520, 233.579943) rotate(-45.000000) translate(-201.188520, -233.579943) " points="201.210389 195.37014 277.586258 271.746009 124.790783 271.789745"></polygon>
            <polygon id="Triangle" fill="#F4D002" transform="translate(255.100899, 179.605765) rotate(-225.000000) translate(-255.100899, -179.605765) " points="255.122767 141.395962 331.498637 217.771832 178.703161 217.815568"></polygon>
            <polygon id="Triangle" fill="#F8DA2C" transform="translate(308.873003, 125.553085) rotate(-45.000000) translate(-308.873003, -125.553085) " points="308.894871 87.3432816 385.27074 163.719151 232.475265 163.762888"></polygon>
            <polygon id="Triangle" fill="#279D34" transform="translate(135.854240, 135.422021) rotate(-135.000000) translate(-135.854240, -135.422021) " points="135.832372 97.2122181 212.251978 173.631824 59.456502 173.588088"></polygon>
            <polygon id="Triangle" fill="#32B240" transform="translate(81.848344, 81.416126) rotate(-315.000000) translate(-81.848344, -81.416126) " points="81.8264763 43.2063227 158.246082 119.625929 5.45060661 119.582192"></polygon>
            <polygon id="Triangle" fill="#2A8735" transform="translate(189.816500, 189.470340) rotate(-315.000000) translate(-189.816500, -189.470340) " points="189.794632 151.260537 266.214238 227.680143 113.418762 227.636407"></polygon>
        </g>
    </g>
</svg>