<?xml version="1.0" encoding="UTF-8"?>
<svg width="508px" height="508px" viewBox="0 0 508 508" version="1.1" xmlns="http://www.w3.org/2000/svg" xmlns:xlink="http://www.w3.org/1999/xlink">
    <title>back</title>
    <g id="dmm" stroke="none" stroke-width="1" fill="none" fill-rule="evenodd">
        <g id="Group-2" transform="translate(21.000000, 1.000000)">
            <polygon id="Triangle" fill="#F8DA2C" transform="translate(251.436403, 435.938713) rotate(-30.000000) translate(-251.436403, -435.938713) " points="251.445524 398.38123 326.531717 473.477954 176.34109 473.496196"></polygon>
            <polygon id="Triangle" fill="#F4D002" transform="translate(316.469631, 398.370698) rotate(-210.000000) translate(-316.469631, -398.370698) " points="316.478751 360.813215 391.564944 435.909939 241.374317 435.928181"></polygon>
            <polygon id="Triangle" fill="#109ED3" transform="translate(149.029029, 108.254596) rotate(-390.000000) translate(-149.029029, -108.254596) " points="149.03815 70.6971127 224.124342 145.793837 73.9337156 145.812079"></polygon>
            <polygon id="Triangle" fill="#10B0EC" transform="translate(214.062256, 70.686581) rotate(-570.000000) translate(-214.062256, -70.686581) " points="214.071377 33.1290978 289.157569 108.225822 138.966943 108.244064"></polygon>
            <polygon id="Triangle" fill="#279D34" transform="translate(83.979801, 361.074419) rotate(-330.000000) translate(-83.979801, -361.074419) " points="83.9706801 323.516936 159.075114 398.631902 8.88448765 398.61366"></polygon>
            <polygon id="Triangle" fill="#2A8735" transform="translate(148.893745, 398.552484) rotate(-150.000000) translate(-148.893745, -398.552484) " points="148.884624 360.995001 223.989058 436.109967 73.7984318 436.091725"></polygon>
            <polygon id="Triangle" fill="#32B240" transform="translate(65.000000, 253.500000) rotate(-450.000000) translate(-65.000000, -253.500000) " points="65 216 140 291 -10 291"></polygon>
            <polygon id="Triangle" fill="#1788B3" transform="translate(65.000000, 178.500000) rotate(-630.000000) translate(-65.000000, -178.500000) " points="65 141 140 216 -10 216"></polygon>
            <polygon id="Triangle" fill="#FF0000" transform="translate(400.000000, 253.500000) rotate(-270.000000) translate(-400.000000, -253.500000) " points="400 216 475 291 325 291"></polygon>
            <polygon id="Triangle" fill="#D9BA06" transform="translate(400.000000, 328.500000) rotate(-90.000000) translate(-400.000000, -328.500000) " points="400 291 475 366 325 366"></polygon>
            <polygon id="Triangle" fill="#E10709" transform="translate(381.474377, 145.403248) rotate(-150.000000) translate(-381.474377, -145.403248) " points="381.465256 107.845765 456.56969 182.960731 306.379064 182.942489"></polygon>
            <polygon id="Triangle" fill="#D31618" transform="translate(316.444522, 107.839930) rotate(-330.000000) translate(-316.444522, -107.839930) " points="316.435401 70.2824472 391.539835 145.397413 241.349208 145.379171"></polygon>
        </g>
        <line x1="262.0625" y1="250.118108" x2="362.1875" y2="192.881892" id="Path" stroke="#FF0000" stroke-width="10" stroke-linecap="round"></line>
        <line x1="145.0625" y1="250.118108" x2="245.1875" y2="192.881892" id="Path" stroke="#109ED3" stroke-width="10" stroke-linecap="round" transform="translate(195.062500, 221.618108) scale(-1, 1) translate(-195.062500, -221.618108) "></line>
        <line x1="254" y1="262" x2="254" y2="380" id="Path-3" stroke="#2A8735" stroke-width="10" stroke-linecap="round"></line>
    </g>
</svg>